<?xml version="1.0" encoding="utf-8"?>
<!DOCTYPE svg PUBLIC "-//W3C//DTD SVG 1.0//EN" "http://www.w3.org/TR/2001/REC-SVG-20010904/DTD/svg10.dtd">
<svg version="1.0" xmlns="http://www.w3.org/2000/svg"	xmlns:xlink="http://www.w3.org/1999/xlink" x="0px" y="0px"	width="612px" height="792px" viewBox="0 0 612 792" enable-background="new 0 0 612 792" xml:space="preserve">
	<path id="RR.IS.0" fill="none" stroke="#000000" stroke-width="0.5" d="M489.22,221.86 c0,-1.0265619455514, -0.8334380544486002,-1.86, -1.86,-1.86 c-1.0265619455514,0, -1.86,0.8334380544486002, -1.86,1.86 c0,1.0265619455514, 0.8334380544486002,1.86, 1.86,1.86 c1.0265619455514,0, 1.86,-0.8334380544486002, 1.86,-1.86"/>
	<path id="RR.IS.1" fill="none" stroke="#000000" stroke-width="0.5" d="M489.22,230.86 c0,-1.0265619455514, -0.8334380544486002,-1.86, -1.86,-1.86 c-1.0265619455514,0, -1.86,0.8334380544486002, -1.86,1.86 c0,1.0265619455514, 0.8334380544486002,1.86, 1.86,1.86 c1.0265619455514,0, 1.86,-0.8334380544486002, 1.86,-1.86"/>
	<path id="RR.IS.2" fill="none" stroke="#000000" stroke-width="0.5" d="M489.22,239.86 c0,-1.0265619455514, -0.8334380544486002,-1.86, -1.86,-1.86 c-1.0265619455514,0, -1.86,0.8334380544486002, -1.86,1.86 c0,1.0265619455514, 0.8334380544486002,1.86, 1.86,1.86 c1.0265619455514,0, 1.86,-0.8334380544486002, 1.86,-1.86"/>
	<path id="RR.IS.3" fill="none" stroke="#000000" stroke-width="0.5" d="M484.72,221.86 c0,-1.0265619455514, -0.8334380544486002,-1.86, -1.86,-1.86 c-1.0265619455514,0, -1.86,0.8334380544486002, -1.86,1.86 c0,1.0265619455514, 0.8334380544486002,1.86, 1.86,1.86 c1.0265619455514,0, 1.86,-0.8334380544486002, 1.86,-1.86"/>
	<path id="RR.IS.4" fill="none" stroke="#000000" stroke-width="0.5" d="M493.72,221.86 c0,-1.0265619455514, -0.8334380544486002,-1.86, -1.86,-1.86 c-1.0265619455514,0, -1.86,0.8334380544486002, -1.86,1.86 c0,1.0265619455514, 0.8334380544486002,1.86, 1.86,1.86 c1.0265619455514,0, 1.86,-0.8334380544486002, 1.86,-1.86"/>
	<path id="RR.IS.5" fill="none" stroke="#000000" stroke-width="0.5" d="M484.72,230.86 c0,-1.0265619455514, -0.8334380544486002,-1.86, -1.86,-1.86 c-1.0265619455514,0, -1.86,0.8334380544486002, -1.86,1.86 c0,1.0265619455514, 0.8334380544486002,1.86, 1.86,1.86 c1.0265619455514,0, 1.86,-0.8334380544486002, 1.86,-1.86"/>
	<path id="RR.IS.6" fill="none" stroke="#000000" stroke-width="0.5" d="M493.72,230.86 c0,-1.0265619455514, -0.8334380544486002,-1.86, -1.86,-1.86 c-1.0265619455514,0, -1.86,0.8334380544486002, -1.86,1.86 c0,1.0265619455514, 0.8334380544486002,1.86, 1.86,1.86 c1.0265619455514,0, 1.86,-0.8334380544486002, 1.86,-1.86"/>
	<path id="RR.IS.7" fill="none" stroke="#000000" stroke-width="0.5" d="M484.72,239.86 c0,-1.0265619455514, -0.8334380544486002,-1.86, -1.86,-1.86 c-1.0265619455514,0, -1.86,0.8334380544486002, -1.86,1.86 c0,1.0265619455514, 0.8334380544486002,1.86, 1.86,1.86 c1.0265619455514,0, 1.86,-0.8334380544486002, 1.86,-1.86"/>
	<path id="RR.IS.8" fill="none" stroke="#000000" stroke-width="0.5" d="M493.72,239.86 c0,-1.0265619455514, -0.8334380544486002,-1.86, -1.86,-1.86 c-1.0265619455514,0, -1.86,0.8334380544486002, -1.86,1.86 c0,1.0265619455514, 0.8334380544486002,1.86, 1.86,1.86 c1.0265619455514,0, 1.86,-0.8334380544486002, 1.86,-1.86"/>
	<path id="RO.IS.0" fill="none" stroke="#000000" stroke-width="0.5" d="M428.22,150.86 c0,-1.0265619455514, -0.8334380544486002,-1.86, -1.86,-1.86 c-1.0265619455514,0, -1.86,0.8334380544486002, -1.86,1.86 c0,1.0265619455514, 0.8334380544486002,1.86, 1.86,1.86 c1.0265619455514,0, 1.86,-0.8334380544486002, 1.86,-1.86"/>
	<path id="RO.IS.1" fill="none" stroke="#000000" stroke-width="0.5" d="M448.22,150.86 c0,-1.0265619455514, -0.8334380544486002,-1.86, -1.86,-1.86 c-1.0265619455514,0, -1.86,0.8334380544486002, -1.86,1.86 c0,1.0265619455514, 0.8334380544486002,1.86, 1.86,1.86 c1.0265619455514,0, 1.86,-0.8334380544486002, 1.86,-1.86"/>
	<path id="RO.IS.2" fill="none" stroke="#000000" stroke-width="0.5" d="M468.22,150.86 c0,-1.0265619455514, -0.8334380544486002,-1.86, -1.86,-1.86 c-1.0265619455514,0, -1.86,0.8334380544486002, -1.86,1.86 c0,1.0265619455514, 0.8334380544486002,1.86, 1.86,1.86 c1.0265619455514,0, 1.86,-0.8334380544486002, 1.86,-1.86"/>
	<path id="RO.IS.3" fill="none" stroke="#000000" stroke-width="0.5" d="M488.22,150.86 c0,-1.0265619455514, -0.8334380544486002,-1.86, -1.86,-1.86 c-1.0265619455514,0, -1.86,0.8334380544486002, -1.86,1.86 c0,1.0265619455514, 0.8334380544486002,1.86, 1.86,1.86 c1.0265619455514,0, 1.86,-0.8334380544486002, 1.86,-1.86"/>
	<path id="RO.IS.4" fill="none" stroke="#000000" stroke-width="0.5" d="M508.22,150.86 c0,-1.0265619455514, -0.8334380544486002,-1.86, -1.86,-1.86 c-1.0265619455514,0, -1.86,0.8334380544486002, -1.86,1.86 c0,1.0265619455514, 0.8334380544486002,1.86, 1.86,1.86 c1.0265619455514,0, 1.86,-0.8334380544486002, 1.86,-1.86"/>
	<path id="RO.IS.5" fill="none" stroke="#000000" stroke-width="0.5" d="M528.22,150.86 c0,-1.0265619455514, -0.8334380544486002,-1.86, -1.86,-1.86 c-1.0265619455514,0, -1.86,0.8334380544486002, -1.86,1.86 c0,1.0265619455514, 0.8334380544486002,1.86, 1.86,1.86 c1.0265619455514,0, 1.86,-0.8334380544486002, 1.86,-1.86"/>
	<path id="RO.IS.6" fill="none" stroke="#000000" stroke-width="0.5" d="M548.22,150.86 c0,-1.0265619455514, -0.8334380544486002,-1.86, -1.86,-1.86 c-1.0265619455514,0, -1.86,0.8334380544486002, -1.86,1.86 c0,1.0265619455514, 0.8334380544486002,1.86, 1.86,1.86 c1.0265619455514,0, 1.86,-0.8334380544486002, 1.86,-1.86"/>
	<path id="RR.0.0" fill="none" stroke="#000000" stroke-width="0.5" d="M490.32000000000005,254.41 c0,-1.3301152090209, -1.0798847909791,-2.41, -2.41,-2.41 c-1.3301152090209,0, -2.41,1.0798847909791, -2.41,2.41 c0,1.3301152090209, 1.0798847909791,2.41, 2.41,2.41 c1.3301152090209,0, 2.41,-1.0798847909791, 2.41,-2.41"/>
	<path id="RR.0.1" fill="none" stroke="#000000" stroke-width="0.5" d="M490.32000000000005,260.41 c0,-1.3301152090209, -1.0798847909791,-2.41, -2.41,-2.41 c-1.3301152090209,0, -2.41,1.0798847909791, -2.41,2.41 c0,1.3301152090209, 1.0798847909791,2.41, 2.41,2.41 c1.3301152090209,0, 2.41,-1.0798847909791, 2.41,-2.41"/>
	<path id="RR.0.2" fill="none" stroke="#000000" stroke-width="0.5" d="M490.32000000000005,266.41 c0,-1.3301152090209, -1.0798847909791,-2.41, -2.41,-2.41 c-1.3301152090209,0, -2.41,1.0798847909791, -2.41,2.41 c0,1.3301152090209, 1.0798847909791,2.41, 2.41,2.41 c1.3301152090209,0, 2.41,-1.0798847909791, 2.41,-2.41"/>
	<path id="RR.0.3" fill="none" stroke="#000000" stroke-width="0.5" d="M490.32000000000005,272.41 c0,-1.3301152090209, -1.0798847909791,-2.41, -2.41,-2.41 c-1.3301152090209,0, -2.41,1.0798847909791, -2.41,2.41 c0,1.3301152090209, 1.0798847909791,2.41, 2.41,2.41 c1.3301152090209,0, 2.41,-1.0798847909791, 2.41,-2.41"/>
	<path id="RR.0.4" fill="none" stroke="#000000" stroke-width="0.5" d="M490.32000000000005,278.41 c0,-1.3301152090209, -1.0798847909791,-2.41, -2.41,-2.41 c-1.3301152090209,0, -2.41,1.0798847909791, -2.41,2.41 c0,1.3301152090209, 1.0798847909791,2.41, 2.41,2.41 c1.3301152090209,0, 2.41,-1.0798847909791, 2.41,-2.41"/>
	<path id="RR.0.5" fill="none" stroke="#000000" stroke-width="0.5" d="M490.32000000000005,284.41 c0,-1.3301152090209, -1.0798847909791,-2.41, -2.41,-2.41 c-1.3301152090209,0, -2.41,1.0798847909791, -2.41,2.41 c0,1.3301152090209, 1.0798847909791,2.41, 2.41,2.41 c1.3301152090209,0, 2.41,-1.0798847909791, 2.41,-2.41"/>
	<path id="RR.0.6" fill="none" stroke="#000000" stroke-width="0.5" d="M490.32000000000005,290.41 c0,-1.3301152090209, -1.0798847909791,-2.41, -2.41,-2.41 c-1.3301152090209,0, -2.41,1.0798847909791, -2.41,2.41 c0,1.3301152090209, 1.0798847909791,2.41, 2.41,2.41 c1.3301152090209,0, 2.41,-1.0798847909791, 2.41,-2.41"/>
	<path id="RR.0.7" fill="none" stroke="#000000" stroke-width="0.5" d="M490.32000000000005,296.41 c0,-1.3301152090209, -1.0798847909791,-2.41, -2.41,-2.41 c-1.3301152090209,0, -2.41,1.0798847909791, -2.41,2.41 c0,1.3301152090209, 1.0798847909791,2.41, 2.41,2.41 c1.3301152090209,0, 2.41,-1.0798847909791, 2.41,-2.41"/>
	<path id="RR.0.8" fill="none" stroke="#000000" stroke-width="0.5" d="M490.32000000000005,302.41 c0,-1.3301152090209, -1.0798847909791,-2.41, -2.41,-2.41 c-1.3301152090209,0, -2.41,1.0798847909791, -2.41,2.41 c0,1.3301152090209, 1.0798847909791,2.41, 2.41,2.41 c1.3301152090209,0, 2.41,-1.0798847909791, 2.41,-2.41"/>
	<path id="RR.0.9" fill="none" stroke="#000000" stroke-width="0.5" d="M490.32000000000005,308.41 c0,-1.3301152090209, -1.0798847909791,-2.41, -2.41,-2.41 c-1.3301152090209,0, -2.41,1.0798847909791, -2.41,2.41 c0,1.3301152090209, 1.0798847909791,2.41, 2.41,2.41 c1.3301152090209,0, 2.41,-1.0798847909791, 2.41,-2.41"/>
	<path id="RR.0.10" fill="none" stroke="#000000" stroke-width="0.5" d="M487.32000000000005,254.41 c0,-1.3301152090209, -1.0798847909791,-2.41, -2.41,-2.41 c-1.3301152090209,0, -2.41,1.0798847909791, -2.41,2.41 c0,1.3301152090209, 1.0798847909791,2.41, 2.41,2.41 c1.3301152090209,0, 2.41,-1.0798847909791, 2.41,-2.41"/>
	<path id="RR.0.11" fill="none" stroke="#000000" stroke-width="0.5" d="M493.32000000000005,254.41 c0,-1.3301152090209, -1.0798847909791,-2.41, -2.41,-2.41 c-1.3301152090209,0, -2.41,1.0798847909791, -2.41,2.41 c0,1.3301152090209, 1.0798847909791,2.41, 2.41,2.41 c1.3301152090209,0, 2.41,-1.0798847909791, 2.41,-2.41"/>
	<path id="RR.0.12" fill="none" stroke="#000000" stroke-width="0.5" d="M487.32000000000005,260.41 c0,-1.3301152090209, -1.0798847909791,-2.41, -2.41,-2.41 c-1.3301152090209,0, -2.41,1.0798847909791, -2.41,2.41 c0,1.3301152090209, 1.0798847909791,2.41, 2.41,2.41 c1.3301152090209,0, 2.41,-1.0798847909791, 2.41,-2.41"/>
	<path id="RR.0.13" fill="none" stroke="#000000" stroke-width="0.5" d="M493.32000000000005,260.41 c0,-1.3301152090209, -1.0798847909791,-2.41, -2.41,-2.41 c-1.3301152090209,0, -2.41,1.0798847909791, -2.41,2.41 c0,1.3301152090209, 1.0798847909791,2.41, 2.41,2.41 c1.3301152090209,0, 2.41,-1.0798847909791, 2.41,-2.41"/>
	<path id="RR.0.14" fill="none" stroke="#000000" stroke-width="0.5" d="M487.32000000000005,266.41 c0,-1.3301152090209, -1.0798847909791,-2.41, -2.41,-2.41 c-1.3301152090209,0, -2.41,1.0798847909791, -2.41,2.41 c0,1.3301152090209, 1.0798847909791,2.41, 2.41,2.41 c1.3301152090209,0, 2.41,-1.0798847909791, 2.41,-2.41"/>
	<path id="RR.0.15" fill="none" stroke="#000000" stroke-width="0.5" d="M493.32000000000005,266.41 c0,-1.3301152090209, -1.0798847909791,-2.41, -2.41,-2.41 c-1.3301152090209,0, -2.41,1.0798847909791, -2.41,2.41 c0,1.3301152090209, 1.0798847909791,2.41, 2.41,2.41 c1.3301152090209,0, 2.41,-1.0798847909791, 2.41,-2.41"/>
	<path id="RR.0.16" fill="none" stroke="#000000" stroke-width="0.5" d="M487.32000000000005,272.41 c0,-1.3301152090209, -1.0798847909791,-2.41, -2.41,-2.41 c-1.3301152090209,0, -2.41,1.0798847909791, -2.41,2.41 c0,1.3301152090209, 1.0798847909791,2.41, 2.41,2.41 c1.3301152090209,0, 2.41,-1.0798847909791, 2.41,-2.41"/>
	<path id="RR.0.17" fill="none" stroke="#000000" stroke-width="0.5" d="M493.32000000000005,272.41 c0,-1.3301152090209, -1.0798847909791,-2.41, -2.41,-2.41 c-1.3301152090209,0, -2.41,1.0798847909791, -2.41,2.41 c0,1.3301152090209, 1.0798847909791,2.41, 2.41,2.41 c1.3301152090209,0, 2.41,-1.0798847909791, 2.41,-2.41"/>
	<path id="RR.0.18" fill="none" stroke="#000000" stroke-width="0.5" d="M487.32000000000005,278.41 c0,-1.3301152090209, -1.0798847909791,-2.41, -2.41,-2.41 c-1.3301152090209,0, -2.41,1.0798847909791, -2.41,2.41 c0,1.3301152090209, 1.0798847909791,2.41, 2.41,2.41 c1.3301152090209,0, 2.41,-1.0798847909791, 2.41,-2.41"/>
	<path id="RR.0.19" fill="none" stroke="#000000" stroke-width="0.5" d="M493.32000000000005,278.41 c0,-1.3301152090209, -1.0798847909791,-2.41, -2.41,-2.41 c-1.3301152090209,0, -2.41,1.0798847909791, -2.41,2.41 c0,1.3301152090209, 1.0798847909791,2.41, 2.41,2.41 c1.3301152090209,0, 2.41,-1.0798847909791, 2.41,-2.41"/>
	<path id="RR.0.20" fill="none" stroke="#000000" stroke-width="0.5" d="M487.32000000000005,284.41 c0,-1.3301152090209, -1.0798847909791,-2.41, -2.41,-2.41 c-1.3301152090209,0, -2.41,1.0798847909791, -2.41,2.41 c0,1.3301152090209, 1.0798847909791,2.41, 2.41,2.41 c1.3301152090209,0, 2.41,-1.0798847909791, 2.41,-2.41"/>
	<path id="RR.0.21" fill="none" stroke="#000000" stroke-width="0.5" d="M493.32000000000005,284.41 c0,-1.3301152090209, -1.0798847909791,-2.41, -2.41,-2.41 c-1.3301152090209,0, -2.41,1.0798847909791, -2.41,2.41 c0,1.3301152090209, 1.0798847909791,2.41, 2.41,2.41 c1.3301152090209,0, 2.41,-1.0798847909791, 2.41,-2.41"/>
	<path id="RR.0.22" fill="none" stroke="#000000" stroke-width="0.5" d="M487.32000000000005,290.41 c0,-1.3301152090209, -1.0798847909791,-2.41, -2.41,-2.41 c-1.3301152090209,0, -2.41,1.0798847909791, -2.41,2.41 c0,1.3301152090209, 1.0798847909791,2.41, 2.41,2.41 c1.3301152090209,0, 2.41,-1.0798847909791, 2.41,-2.41"/>
	<path id="RR.0.23" fill="none" stroke="#000000" stroke-width="0.5" d="M493.32000000000005,290.41 c0,-1.3301152090209, -1.0798847909791,-2.41, -2.41,-2.41 c-1.3301152090209,0, -2.41,1.0798847909791, -2.41,2.41 c0,1.3301152090209, 1.0798847909791,2.41, 2.41,2.41 c1.3301152090209,0, 2.41,-1.0798847909791, 2.41,-2.41"/>
	<path id="RR.0.24" fill="none" stroke="#000000" stroke-width="0.5" d="M487.32000000000005,296.41 c0,-1.3301152090209, -1.0798847909791,-2.41, -2.41,-2.41 c-1.3301152090209,0, -2.41,1.0798847909791, -2.41,2.41 c0,1.3301152090209, 1.0798847909791,2.41, 2.41,2.41 c1.3301152090209,0, 2.41,-1.0798847909791, 2.41,-2.41"/>
	<path id="RR.0.25" fill="none" stroke="#000000" stroke-width="0.5" d="M493.32000000000005,296.41 c0,-1.3301152090209, -1.0798847909791,-2.41, -2.41,-2.41 c-1.3301152090209,0, -2.41,1.0798847909791, -2.41,2.41 c0,1.3301152090209, 1.0798847909791,2.41, 2.41,2.41 c1.3301152090209,0, 2.41,-1.0798847909791, 2.41,-2.41"/>
	<path id="RR.0.26" fill="none" stroke="#000000" stroke-width="0.5" d="M487.32000000000005,302.41 c0,-1.3301152090209, -1.0798847909791,-2.41, -2.41,-2.41 c-1.3301152090209,0, -2.41,1.0798847909791, -2.41,2.41 c0,1.3301152090209, 1.0798847909791,2.41, 2.41,2.41 c1.3301152090209,0, 2.41,-1.0798847909791, 2.41,-2.41"/>
	<path id="RR.0.27" fill="none" stroke="#000000" stroke-width="0.5" d="M493.32000000000005,302.41 c0,-1.3301152090209, -1.0798847909791,-2.41, -2.41,-2.41 c-1.3301152090209,0, -2.41,1.0798847909791, -2.41,2.41 c0,1.3301152090209, 1.0798847909791,2.41, 2.41,2.41 c1.3301152090209,0, 2.41,-1.0798847909791, 2.41,-2.41"/>
	<path id="RR.0.28" fill="none" stroke="#000000" stroke-width="0.5" d="M487.32000000000005,308.41 c0,-1.3301152090209, -1.0798847909791,-2.41, -2.41,-2.41 c-1.3301152090209,0, -2.41,1.0798847909791, -2.41,2.41 c0,1.3301152090209, 1.0798847909791,2.41, 2.41,2.41 c1.3301152090209,0, 2.41,-1.0798847909791, 2.41,-2.41"/>
	<path id="RR.0.29" fill="none" stroke="#000000" stroke-width="0.5" d="M493.32000000000005,308.41 c0,-1.3301152090209, -1.0798847909791,-2.41, -2.41,-2.41 c-1.3301152090209,0, -2.41,1.0798847909791, -2.41,2.41 c0,1.3301152090209, 1.0798847909791,2.41, 2.41,2.41 c1.3301152090209,0, 2.41,-1.0798847909791, 2.41,-2.41"/>
	<path id="LS.IS.0" fill="none" stroke="#000000" stroke-width="0.5" d="M481.72,165.86 c0,-1.0265619455514, -0.8334380544486002,-1.86, -1.86,-1.86 c-1.0265619455514,0, -1.86,0.8334380544486002, -1.86,1.86 c0,1.0265619455514, 0.8334380544486002,1.86, 1.86,1.86 c1.0265619455514,0, 1.86,-0.8334380544486002, 1.86,-1.86"/>
	<path id="LS.IS.1" fill="none" stroke="#000000" stroke-width="0.5" d="M481.72,172.86 c0,-1.0265619455514, -0.8334380544486002,-1.86, -1.86,-1.86 c-1.0265619455514,0, -1.86,0.8334380544486002, -1.86,1.86 c0,1.0265619455514, 0.8334380544486002,1.86, 1.86,1.86 c1.0265619455514,0, 1.86,-0.8334380544486002, 1.86,-1.86"/>
	<path id="LS.IS.2" fill="none" stroke="#000000" stroke-width="0.5" d="M481.72,179.86 c0,-1.0265619455514, -0.8334380544486002,-1.86, -1.86,-1.86 c-1.0265619455514,0, -1.86,0.8334380544486002, -1.86,1.86 c0,1.0265619455514, 0.8334380544486002,1.86, 1.86,1.86 c1.0265619455514,0, 1.86,-0.8334380544486002, 1.86,-1.86"/>
	<path id="LS.IS.3" fill="none" stroke="#000000" stroke-width="0.5" d="M481.72,186.86 c0,-1.0265619455514, -0.8334380544486002,-1.86, -1.86,-1.86 c-1.0265619455514,0, -1.86,0.8334380544486002, -1.86,1.86 c0,1.0265619455514, 0.8334380544486002,1.86, 1.86,1.86 c1.0265619455514,0, 1.86,-0.8334380544486002, 1.86,-1.86"/>
	<path id="LS.IS.4" fill="none" stroke="#000000" stroke-width="0.5" d="M481.72,193.86 c0,-1.0265619455514, -0.8334380544486002,-1.86, -1.86,-1.86 c-1.0265619455514,0, -1.86,0.8334380544486002, -1.86,1.86 c0,1.0265619455514, 0.8334380544486002,1.86, 1.86,1.86 c1.0265619455514,0, 1.86,-0.8334380544486002, 1.86,-1.86"/>
	<path id="LS.IS.5" fill="none" stroke="#000000" stroke-width="0.5" d="M481.72,200.86 c0,-1.0265619455514, -0.8334380544486002,-1.86, -1.86,-1.86 c-1.0265619455514,0, -1.86,0.8334380544486002, -1.86,1.86 c0,1.0265619455514, 0.8334380544486002,1.86, 1.86,1.86 c1.0265619455514,0, 1.86,-0.8334380544486002, 1.86,-1.86"/>
	<path id="RS.0.0" fill="none" stroke="#000000" stroke-width="0.5" d="M518.8199999999999,104.41 c0,-1.3301152090209, -1.0798847909791,-2.41, -2.41,-2.41 c-1.3301152090209,0, -2.41,1.0798847909791, -2.41,2.41 c0,1.3301152090209, 1.0798847909791,2.41, 2.41,2.41 c1.3301152090209,0, 2.41,-1.0798847909791, 2.41,-2.41"/>
	<path id="RS.0.1" fill="none" stroke="#000000" stroke-width="0.5" d="M512.82,110.41 c0,-1.3301152090209, -1.0798847909791,-2.41, -2.41,-2.41 c-1.3301152090209,0, -2.41,1.0798847909791, -2.41,2.41 c0,1.3301152090209, 1.0798847909791,2.41, 2.41,2.41 c1.3301152090209,0, 2.41,-1.0798847909791, 2.41,-2.41"/>
	<path id="RS.0.2" fill="none" stroke="#000000" stroke-width="0.5" d="M518.8199999999999,110.41 c0,-1.3301152090209, -1.0798847909791,-2.41, -2.41,-2.41 c-1.3301152090209,0, -2.41,1.0798847909791, -2.41,2.41 c0,1.3301152090209, 1.0798847909791,2.41, 2.41,2.41 c1.3301152090209,0, 2.41,-1.0798847909791, 2.41,-2.41"/>
	<path id="RS.0.3" fill="none" stroke="#000000" stroke-width="0.5" d="M506.82000000000005,116.41 c0,-1.3301152090209, -1.0798847909791,-2.41, -2.41,-2.41 c-1.3301152090209,0, -2.41,1.0798847909791, -2.41,2.41 c0,1.3301152090209, 1.0798847909791,2.41, 2.41,2.41 c1.3301152090209,0, 2.41,-1.0798847909791, 2.41,-2.41"/>
	<path id="RS.0.4" fill="none" stroke="#000000" stroke-width="0.5" d="M512.82,116.41 c0,-1.3301152090209, -1.0798847909791,-2.41, -2.41,-2.41 c-1.3301152090209,0, -2.41,1.0798847909791, -2.41,2.41 c0,1.3301152090209, 1.0798847909791,2.41, 2.41,2.41 c1.3301152090209,0, 2.41,-1.0798847909791, 2.41,-2.41"/>
	<path id="RS.0.5" fill="none" stroke="#000000" stroke-width="0.5" d="M518.8199999999999,116.41 c0,-1.3301152090209, -1.0798847909791,-2.41, -2.41,-2.41 c-1.3301152090209,0, -2.41,1.0798847909791, -2.41,2.41 c0,1.3301152090209, 1.0798847909791,2.41, 2.41,2.41 c1.3301152090209,0, 2.41,-1.0798847909791, 2.41,-2.41"/>
	<path id="RS.0.6" fill="none" stroke="#000000" stroke-width="0.5" d="M506.82000000000005,122.41 c0,-1.3301152090209, -1.0798847909791,-2.41, -2.41,-2.41 c-1.3301152090209,0, -2.41,1.0798847909791, -2.41,2.41 c0,1.3301152090209, 1.0798847909791,2.41, 2.41,2.41 c1.3301152090209,0, 2.41,-1.0798847909791, 2.41,-2.41"/>
	<path id="RS.0.7" fill="none" stroke="#000000" stroke-width="0.5" d="M512.82,122.41 c0,-1.3301152090209, -1.0798847909791,-2.41, -2.41,-2.41 c-1.3301152090209,0, -2.41,1.0798847909791, -2.41,2.41 c0,1.3301152090209, 1.0798847909791,2.41, 2.41,2.41 c1.3301152090209,0, 2.41,-1.0798847909791, 2.41,-2.41"/>
	<path id="RS.0.8" fill="none" stroke="#000000" stroke-width="0.5" d="M518.8199999999999,122.41 c0,-1.3301152090209, -1.0798847909791,-2.41, -2.41,-2.41 c-1.3301152090209,0, -2.41,1.0798847909791, -2.41,2.41 c0,1.3301152090209, 1.0798847909791,2.41, 2.41,2.41 c1.3301152090209,0, 2.41,-1.0798847909791, 2.41,-2.41"/>
	<path id="RS.0.9" fill="none" stroke="#000000" stroke-width="0.5" d="M506.82000000000005,128.41 c0,-1.3301152090209, -1.0798847909791,-2.41, -2.41,-2.41 c-1.3301152090209,0, -2.41,1.0798847909791, -2.41,2.41 c0,1.3301152090209, 1.0798847909791,2.41, 2.41,2.41 c1.3301152090209,0, 2.41,-1.0798847909791, 2.41,-2.41"/>
	<path id="RS.0.10" fill="none" stroke="#000000" stroke-width="0.5" d="M512.82,128.41 c0,-1.3301152090209, -1.0798847909791,-2.41, -2.41,-2.41 c-1.3301152090209,0, -2.41,1.0798847909791, -2.41,2.41 c0,1.3301152090209, 1.0798847909791,2.41, 2.41,2.41 c1.3301152090209,0, 2.41,-1.0798847909791, 2.41,-2.41"/>
	<path id="RS.0.11" fill="none" stroke="#000000" stroke-width="0.5" d="M518.8199999999999,128.41 c0,-1.3301152090209, -1.0798847909791,-2.41, -2.41,-2.41 c-1.3301152090209,0, -2.41,1.0798847909791, -2.41,2.41 c0,1.3301152090209, 1.0798847909791,2.41, 2.41,2.41 c1.3301152090209,0, 2.41,-1.0798847909791, 2.41,-2.41"/>
	<path id="RS.0.12" fill="none" stroke="#000000" stroke-width="0.5" d="M506.82000000000005,134.41 c0,-1.3301152090209, -1.0798847909791,-2.41, -2.41,-2.41 c-1.3301152090209,0, -2.41,1.0798847909791, -2.41,2.41 c0,1.3301152090209, 1.0798847909791,2.41, 2.41,2.41 c1.3301152090209,0, 2.41,-1.0798847909791, 2.41,-2.41"/>
	<path id="RS.0.13" fill="none" stroke="#000000" stroke-width="0.5" d="M512.82,134.41 c0,-1.3301152090209, -1.0798847909791,-2.41, -2.41,-2.41 c-1.3301152090209,0, -2.41,1.0798847909791, -2.41,2.41 c0,1.3301152090209, 1.0798847909791,2.41, 2.41,2.41 c1.3301152090209,0, 2.41,-1.0798847909791, 2.41,-2.41"/>
	<path id="RS.0.14" fill="none" stroke="#000000" stroke-width="0.5" d="M518.8199999999999,134.41 c0,-1.3301152090209, -1.0798847909791,-2.41, -2.41,-2.41 c-1.3301152090209,0, -2.41,1.0798847909791, -2.41,2.41 c0,1.3301152090209, 1.0798847909791,2.41, 2.41,2.41 c1.3301152090209,0, 2.41,-1.0798847909791, 2.41,-2.41"/>
	<path id="RS.0.15" fill="none" stroke="#000000" stroke-width="0.5" d="M506.82000000000005,140.41 c0,-1.3301152090209, -1.0798847909791,-2.41, -2.41,-2.41 c-1.3301152090209,0, -2.41,1.0798847909791, -2.41,2.41 c0,1.3301152090209, 1.0798847909791,2.41, 2.41,2.41 c1.3301152090209,0, 2.41,-1.0798847909791, 2.41,-2.41"/>
	<path id="RS.0.16" fill="none" stroke="#000000" stroke-width="0.5" d="M512.82,140.41 c0,-1.3301152090209, -1.0798847909791,-2.41, -2.41,-2.41 c-1.3301152090209,0, -2.41,1.0798847909791, -2.41,2.41 c0,1.3301152090209, 1.0798847909791,2.41, 2.41,2.41 c1.3301152090209,0, 2.41,-1.0798847909791, 2.41,-2.41"/>
	<path id="RS.0.17" fill="none" stroke="#000000" stroke-width="0.5" d="M518.8199999999999,140.41 c0,-1.3301152090209, -1.0798847909791,-2.41, -2.41,-2.41 c-1.3301152090209,0, -2.41,1.0798847909791, -2.41,2.41 c0,1.3301152090209, 1.0798847909791,2.41, 2.41,2.41 c1.3301152090209,0, 2.41,-1.0798847909791, 2.41,-2.41"/>
	<path id="RS.0.18" fill="none" stroke="#000000" stroke-width="0.5" d="M505.82000000000005,162.91 c0,-1.3301152090209, -1.0798847909791,-2.41, -2.41,-2.41 c-1.3301152090209,0, -2.41,1.0798847909791, -2.41,2.41 c0,1.3301152090209, 1.0798847909791,2.41, 2.41,2.41 c1.3301152090209,0, 2.41,-1.0798847909791, 2.41,-2.41"/>
	<path id="RS.0.19" fill="none" stroke="#000000" stroke-width="0.5" d="M511.82000000000005,162.91 c0,-1.3301152090209, -1.0798847909791,-2.41, -2.41,-2.41 c-1.3301152090209,0, -2.41,1.0798847909791, -2.41,2.41 c0,1.3301152090209, 1.0798847909791,2.41, 2.41,2.41 c1.3301152090209,0, 2.41,-1.0798847909791, 2.41,-2.41"/>
	<path id="RS.0.20" fill="none" stroke="#000000" stroke-width="0.5" d="M505.82000000000005,168.91 c0,-1.3301152090209, -1.0798847909791,-2.41, -2.41,-2.41 c-1.3301152090209,0, -2.41,1.0798847909791, -2.41,2.41 c0,1.3301152090209, 1.0798847909791,2.41, 2.41,2.41 c1.3301152090209,0, 2.41,-1.0798847909791, 2.41,-2.41"/>
	<path id="RS.0.21" fill="none" stroke="#000000" stroke-width="0.5" d="M511.82000000000005,168.91 c0,-1.3301152090209, -1.0798847909791,-2.41, -2.41,-2.41 c-1.3301152090209,0, -2.41,1.0798847909791, -2.41,2.41 c0,1.3301152090209, 1.0798847909791,2.41, 2.41,2.41 c1.3301152090209,0, 2.41,-1.0798847909791, 2.41,-2.41"/>
	<path id="RS.0.22" fill="none" stroke="#000000" stroke-width="0.5" d="M505.82000000000005,174.91 c0,-1.3301152090209, -1.0798847909791,-2.41, -2.41,-2.41 c-1.3301152090209,0, -2.41,1.0798847909791, -2.41,2.41 c0,1.3301152090209, 1.0798847909791,2.41, 2.41,2.41 c1.3301152090209,0, 2.41,-1.0798847909791, 2.41,-2.41"/>
	<path id="RS.0.23" fill="none" stroke="#000000" stroke-width="0.5" d="M511.82000000000005,174.91 c0,-1.3301152090209, -1.0798847909791,-2.41, -2.41,-2.41 c-1.3301152090209,0, -2.41,1.0798847909791, -2.41,2.41 c0,1.3301152090209, 1.0798847909791,2.41, 2.41,2.41 c1.3301152090209,0, 2.41,-1.0798847909791, 2.41,-2.41"/>
	<path id="RS.0.24" fill="none" stroke="#000000" stroke-width="0.5" d="M505.82000000000005,180.91 c0,-1.3301152090209, -1.0798847909791,-2.41, -2.41,-2.41 c-1.3301152090209,0, -2.41,1.0798847909791, -2.41,2.41 c0,1.3301152090209, 1.0798847909791,2.41, 2.41,2.41 c1.3301152090209,0, 2.41,-1.0798847909791, 2.41,-2.41"/>
	<path id="RS.0.25" fill="none" stroke="#000000" stroke-width="0.5" d="M511.82000000000005,180.91 c0,-1.3301152090209, -1.0798847909791,-2.41, -2.41,-2.41 c-1.3301152090209,0, -2.41,1.0798847909791, -2.41,2.41 c0,1.3301152090209, 1.0798847909791,2.41, 2.41,2.41 c1.3301152090209,0, 2.41,-1.0798847909791, 2.41,-2.41"/>
	<path id="RS.0.26" fill="none" stroke="#000000" stroke-width="0.5" d="M505.82000000000005,186.91 c0,-1.3301152090209, -1.0798847909791,-2.41, -2.41,-2.41 c-1.3301152090209,0, -2.41,1.0798847909791, -2.41,2.41 c0,1.3301152090209, 1.0798847909791,2.41, 2.41,2.41 c1.3301152090209,0, 2.41,-1.0798847909791, 2.41,-2.41"/>
	<path id="RS.0.27" fill="none" stroke="#000000" stroke-width="0.5" d="M505.82000000000005,192.91 c0,-1.3301152090209, -1.0798847909791,-2.41, -2.41,-2.41 c-1.3301152090209,0, -2.41,1.0798847909791, -2.41,2.41 c0,1.3301152090209, 1.0798847909791,2.41, 2.41,2.41 c1.3301152090209,0, 2.41,-1.0798847909791, 2.41,-2.41"/>
	<path id="RS.0.28" fill="none" stroke="#000000" stroke-width="0.5" d="M505.82000000000005,198.91 c0,-1.3301152090209, -1.0798847909791,-2.41, -2.41,-2.41 c-1.3301152090209,0, -2.41,1.0798847909791, -2.41,2.41 c0,1.3301152090209, 1.0798847909791,2.41, 2.41,2.41 c1.3301152090209,0, 2.41,-1.0798847909791, 2.41,-2.41"/>
	<path id="RS.0.29" fill="none" stroke="#000000" stroke-width="0.5" d="M505.82000000000005,204.91 c0,-1.3301152090209, -1.0798847909791,-2.41, -2.41,-2.41 c-1.3301152090209,0, -2.41,1.0798847909791, -2.41,2.41 c0,1.3301152090209, 1.0798847909791,2.41, 2.41,2.41 c1.3301152090209,0, 2.41,-1.0798847909791, 2.41,-2.41"/>
	<path id="RO.0.0" fill="none" stroke="#000000" stroke-width="0.5" d="M409.82000000000005,151.41 c0,-1.3301152090209, -1.0798847909791,-2.41, -2.41,-2.41 c-1.3301152090209,0, -2.41,1.0798847909791, -2.41,2.41 c0,1.3301152090209, 1.0798847909791,2.41, 2.41,2.41 c1.3301152090209,0, 2.41,-1.0798847909791, 2.41,-2.41"/>
	<path id="RO.0.1" fill="none" stroke="#000000" stroke-width="0.5" d="M566.8199999999999,151.41 c0,-1.3301152090209, -1.0798847909791,-2.41, -2.41,-2.41 c-1.3301152090209,0, -2.41,1.0798847909791, -2.41,2.41 c0,1.3301152090209, 1.0798847909791,2.41, 2.41,2.41 c1.3301152090209,0, 2.41,-1.0798847909791, 2.41,-2.41"/>
	<path id="LS.0.0" fill="none" stroke="#000000" stroke-width="0.5" d="M459.32000000000005,104.41 c0,-1.3301152090209, -1.0798847909791,-2.41, -2.41,-2.41 c-1.3301152090209,0, -2.41,1.0798847909791, -2.41,2.41 c0,1.3301152090209, 1.0798847909791,2.41, 2.41,2.41 c1.3301152090209,0, 2.41,-1.0798847909791, 2.41,-2.41"/>
	<path id="LS.0.1" fill="none" stroke="#000000" stroke-width="0.5" d="M459.32000000000005,110.41 c0,-1.3301152090209, -1.0798847909791,-2.41, -2.41,-2.41 c-1.3301152090209,0, -2.41,1.0798847909791, -2.41,2.41 c0,1.3301152090209, 1.0798847909791,2.41, 2.41,2.41 c1.3301152090209,0, 2.41,-1.0798847909791, 2.41,-2.41"/>
	<path id="LS.0.2" fill="none" stroke="#000000" stroke-width="0.5" d="M465.32000000000005,110.41 c0,-1.3301152090209, -1.0798847909791,-2.41, -2.41,-2.41 c-1.3301152090209,0, -2.41,1.0798847909791, -2.41,2.41 c0,1.3301152090209, 1.0798847909791,2.41, 2.41,2.41 c1.3301152090209,0, 2.41,-1.0798847909791, 2.41,-2.41"/>
	<path id="LS.0.3" fill="none" stroke="#000000" stroke-width="0.5" d="M459.32000000000005,116.41 c0,-1.3301152090209, -1.0798847909791,-2.41, -2.41,-2.41 c-1.3301152090209,0, -2.41,1.0798847909791, -2.41,2.41 c0,1.3301152090209, 1.0798847909791,2.41, 2.41,2.41 c1.3301152090209,0, 2.41,-1.0798847909791, 2.41,-2.41"/>
	<path id="LS.0.4" fill="none" stroke="#000000" stroke-width="0.5" d="M465.32000000000005,116.41 c0,-1.3301152090209, -1.0798847909791,-2.41, -2.41,-2.41 c-1.3301152090209,0, -2.41,1.0798847909791, -2.41,2.41 c0,1.3301152090209, 1.0798847909791,2.41, 2.41,2.41 c1.3301152090209,0, 2.41,-1.0798847909791, 2.41,-2.41"/>
	<path id="LS.0.5" fill="none" stroke="#000000" stroke-width="0.5" d="M471.32000000000005,116.41 c0,-1.3301152090209, -1.0798847909791,-2.41, -2.41,-2.41 c-1.3301152090209,0, -2.41,1.0798847909791, -2.41,2.41 c0,1.3301152090209, 1.0798847909791,2.41, 2.41,2.41 c1.3301152090209,0, 2.41,-1.0798847909791, 2.41,-2.41"/>
	<path id="LS.0.6" fill="none" stroke="#000000" stroke-width="0.5" d="M459.32000000000005,122.41 c0,-1.3301152090209, -1.0798847909791,-2.41, -2.41,-2.41 c-1.3301152090209,0, -2.41,1.0798847909791, -2.41,2.41 c0,1.3301152090209, 1.0798847909791,2.41, 2.41,2.41 c1.3301152090209,0, 2.41,-1.0798847909791, 2.41,-2.41"/>
	<path id="LS.0.7" fill="none" stroke="#000000" stroke-width="0.5" d="M465.32000000000005,122.41 c0,-1.3301152090209, -1.0798847909791,-2.41, -2.41,-2.41 c-1.3301152090209,0, -2.41,1.0798847909791, -2.41,2.41 c0,1.3301152090209, 1.0798847909791,2.41, 2.41,2.41 c1.3301152090209,0, 2.41,-1.0798847909791, 2.41,-2.41"/>
	<path id="LS.0.8" fill="none" stroke="#000000" stroke-width="0.5" d="M471.32000000000005,122.41 c0,-1.3301152090209, -1.0798847909791,-2.41, -2.41,-2.41 c-1.3301152090209,0, -2.41,1.0798847909791, -2.41,2.41 c0,1.3301152090209, 1.0798847909791,2.41, 2.41,2.41 c1.3301152090209,0, 2.41,-1.0798847909791, 2.41,-2.41"/>
	<path id="LS.0.9" fill="none" stroke="#000000" stroke-width="0.5" d="M459.32000000000005,128.41 c0,-1.3301152090209, -1.0798847909791,-2.41, -2.41,-2.41 c-1.3301152090209,0, -2.41,1.0798847909791, -2.41,2.41 c0,1.3301152090209, 1.0798847909791,2.41, 2.41,2.41 c1.3301152090209,0, 2.41,-1.0798847909791, 2.41,-2.41"/>
	<path id="LS.0.10" fill="none" stroke="#000000" stroke-width="0.5" d="M465.32000000000005,128.41 c0,-1.3301152090209, -1.0798847909791,-2.41, -2.41,-2.41 c-1.3301152090209,0, -2.41,1.0798847909791, -2.41,2.41 c0,1.3301152090209, 1.0798847909791,2.41, 2.41,2.41 c1.3301152090209,0, 2.41,-1.0798847909791, 2.41,-2.41"/>
	<path id="LS.0.11" fill="none" stroke="#000000" stroke-width="0.5" d="M471.32000000000005,128.41 c0,-1.3301152090209, -1.0798847909791,-2.41, -2.41,-2.41 c-1.3301152090209,0, -2.41,1.0798847909791, -2.41,2.41 c0,1.3301152090209, 1.0798847909791,2.41, 2.41,2.41 c1.3301152090209,0, 2.41,-1.0798847909791, 2.41,-2.41"/>
	<path id="LS.0.12" fill="none" stroke="#000000" stroke-width="0.5" d="M459.32000000000005,134.41 c0,-1.3301152090209, -1.0798847909791,-2.41, -2.41,-2.41 c-1.3301152090209,0, -2.41,1.0798847909791, -2.41,2.41 c0,1.3301152090209, 1.0798847909791,2.41, 2.41,2.41 c1.3301152090209,0, 2.41,-1.0798847909791, 2.41,-2.41"/>
	<path id="LS.0.13" fill="none" stroke="#000000" stroke-width="0.5" d="M465.32000000000005,134.41 c0,-1.3301152090209, -1.0798847909791,-2.41, -2.41,-2.41 c-1.3301152090209,0, -2.41,1.0798847909791, -2.41,2.41 c0,1.3301152090209, 1.0798847909791,2.41, 2.41,2.41 c1.3301152090209,0, 2.41,-1.0798847909791, 2.41,-2.41"/>
	<path id="LS.0.14" fill="none" stroke="#000000" stroke-width="0.5" d="M471.32000000000005,134.41 c0,-1.3301152090209, -1.0798847909791,-2.41, -2.41,-2.41 c-1.3301152090209,0, -2.41,1.0798847909791, -2.41,2.41 c0,1.3301152090209, 1.0798847909791,2.41, 2.41,2.41 c1.3301152090209,0, 2.41,-1.0798847909791, 2.41,-2.41"/>
	<path id="LS.0.15" fill="none" stroke="#000000" stroke-width="0.5" d="M459.32000000000005,140.41 c0,-1.3301152090209, -1.0798847909791,-2.41, -2.41,-2.41 c-1.3301152090209,0, -2.41,1.0798847909791, -2.41,2.41 c0,1.3301152090209, 1.0798847909791,2.41, 2.41,2.41 c1.3301152090209,0, 2.41,-1.0798847909791, 2.41,-2.41"/>
	<path id="LS.0.16" fill="none" stroke="#000000" stroke-width="0.5" d="M465.32000000000005,140.41 c0,-1.3301152090209, -1.0798847909791,-2.41, -2.41,-2.41 c-1.3301152090209,0, -2.41,1.0798847909791, -2.41,2.41 c0,1.3301152090209, 1.0798847909791,2.41, 2.41,2.41 c1.3301152090209,0, 2.41,-1.0798847909791, 2.41,-2.41"/>
	<path id="LS.0.17" fill="none" stroke="#000000" stroke-width="0.5" d="M471.32000000000005,140.41 c0,-1.3301152090209, -1.0798847909791,-2.41, -2.41,-2.41 c-1.3301152090209,0, -2.41,1.0798847909791, -2.41,2.41 c0,1.3301152090209, 1.0798847909791,2.41, 2.41,2.41 c1.3301152090209,0, 2.41,-1.0798847909791, 2.41,-2.41"/>
	<path id="LS.0.18" fill="none" stroke="#000000" stroke-width="0.5" d="M466.32000000000005,162.91 c0,-1.3301152090209, -1.0798847909791,-2.41, -2.41,-2.41 c-1.3301152090209,0, -2.41,1.0798847909791, -2.41,2.41 c0,1.3301152090209, 1.0798847909791,2.41, 2.41,2.41 c1.3301152090209,0, 2.41,-1.0798847909791, 2.41,-2.41"/>
	<path id="LS.0.19" fill="none" stroke="#000000" stroke-width="0.5" d="M472.32000000000005,162.91 c0,-1.3301152090209, -1.0798847909791,-2.41, -2.41,-2.41 c-1.3301152090209,0, -2.41,1.0798847909791, -2.41,2.41 c0,1.3301152090209, 1.0798847909791,2.41, 2.41,2.41 c1.3301152090209,0, 2.41,-1.0798847909791, 2.41,-2.41"/>
	<path id="LS.0.20" fill="none" stroke="#000000" stroke-width="0.5" d="M466.32000000000005,168.91 c0,-1.3301152090209, -1.0798847909791,-2.41, -2.41,-2.41 c-1.3301152090209,0, -2.41,1.0798847909791, -2.41,2.41 c0,1.3301152090209, 1.0798847909791,2.41, 2.41,2.41 c1.3301152090209,0, 2.41,-1.0798847909791, 2.41,-2.41"/>
	<path id="LS.0.21" fill="none" stroke="#000000" stroke-width="0.5" d="M472.32000000000005,168.91 c0,-1.3301152090209, -1.0798847909791,-2.41, -2.41,-2.41 c-1.3301152090209,0, -2.41,1.0798847909791, -2.41,2.41 c0,1.3301152090209, 1.0798847909791,2.41, 2.41,2.41 c1.3301152090209,0, 2.41,-1.0798847909791, 2.41,-2.41"/>
	<path id="LS.0.22" fill="none" stroke="#000000" stroke-width="0.5" d="M466.32000000000005,174.91 c0,-1.3301152090209, -1.0798847909791,-2.41, -2.41,-2.41 c-1.3301152090209,0, -2.41,1.0798847909791, -2.41,2.41 c0,1.3301152090209, 1.0798847909791,2.41, 2.41,2.41 c1.3301152090209,0, 2.41,-1.0798847909791, 2.41,-2.41"/>
	<path id="LS.0.23" fill="none" stroke="#000000" stroke-width="0.5" d="M472.32000000000005,174.91 c0,-1.3301152090209, -1.0798847909791,-2.41, -2.41,-2.41 c-1.3301152090209,0, -2.41,1.0798847909791, -2.41,2.41 c0,1.3301152090209, 1.0798847909791,2.41, 2.41,2.41 c1.3301152090209,0, 2.41,-1.0798847909791, 2.41,-2.41"/>
	<path id="LS.0.24" fill="none" stroke="#000000" stroke-width="0.5" d="M466.32000000000005,180.91 c0,-1.3301152090209, -1.0798847909791,-2.41, -2.41,-2.41 c-1.3301152090209,0, -2.41,1.0798847909791, -2.41,2.41 c0,1.3301152090209, 1.0798847909791,2.41, 2.41,2.41 c1.3301152090209,0, 2.41,-1.0798847909791, 2.41,-2.41"/>
	<path id="LS.0.25" fill="none" stroke="#000000" stroke-width="0.5" d="M472.32000000000005,180.91 c0,-1.3301152090209, -1.0798847909791,-2.41, -2.41,-2.41 c-1.3301152090209,0, -2.41,1.0798847909791, -2.41,2.41 c0,1.3301152090209, 1.0798847909791,2.41, 2.41,2.41 c1.3301152090209,0, 2.41,-1.0798847909791, 2.41,-2.41"/>
	<path id="LS.0.26" fill="none" stroke="#000000" stroke-width="0.5" d="M472.32000000000005,186.91 c0,-1.3301152090209, -1.0798847909791,-2.41, -2.41,-2.41 c-1.3301152090209,0, -2.41,1.0798847909791, -2.41,2.41 c0,1.3301152090209, 1.0798847909791,2.41, 2.41,2.41 c1.3301152090209,0, 2.41,-1.0798847909791, 2.41,-2.41"/>
	<path id="LS.0.27" fill="none" stroke="#000000" stroke-width="0.5" d="M472.32000000000005,192.91 c0,-1.3301152090209, -1.0798847909791,-2.41, -2.41,-2.41 c-1.3301152090209,0, -2.41,1.0798847909791, -2.41,2.41 c0,1.3301152090209, 1.0798847909791,2.41, 2.41,2.41 c1.3301152090209,0, 2.41,-1.0798847909791, 2.41,-2.41"/>
	<path id="LS.0.28" fill="none" stroke="#000000" stroke-width="0.5" d="M472.32000000000005,198.91 c0,-1.3301152090209, -1.0798847909791,-2.41, -2.41,-2.41 c-1.3301152090209,0, -2.41,1.0798847909791, -2.41,2.41 c0,1.3301152090209, 1.0798847909791,2.41, 2.41,2.41 c1.3301152090209,0, 2.41,-1.0798847909791, 2.41,-2.41"/>
	<path id="LS.0.29" fill="none" stroke="#000000" stroke-width="0.5" d="M472.32000000000005,204.91 c0,-1.3301152090209, -1.0798847909791,-2.41, -2.41,-2.41 c-1.3301152090209,0, -2.41,1.0798847909791, -2.41,2.41 c0,1.3301152090209, 1.0798847909791,2.41, 2.41,2.41 c1.3301152090209,0, 2.41,-1.0798847909791, 2.41,-2.41"/>
	<path id="FR.IS.0" fill="none" stroke="#000000" stroke-width="0.5" d="M481.72,121.86 c0,-1.0265619455514, -0.8334380544486002,-1.86, -1.86,-1.86 c-1.0265619455514,0, -1.86,0.8334380544486002, -1.86,1.86 c0,1.0265619455514, 0.8334380544486002,1.86, 1.86,1.86 c1.0265619455514,0, 1.86,-0.8334380544486002, 1.86,-1.86"/>
	<path id="FR.IS.1" fill="none" stroke="#000000" stroke-width="0.5" d="M481.72,130.86 c0,-1.0265619455514, -0.8334380544486002,-1.86, -1.86,-1.86 c-1.0265619455514,0, -1.86,0.8334380544486002, -1.86,1.86 c0,1.0265619455514, 0.8334380544486002,1.86, 1.86,1.86 c1.0265619455514,0, 1.86,-0.8334380544486002, 1.86,-1.86"/>
	<path id="FR.IS.2" fill="none" stroke="#000000" stroke-width="0.5" d="M481.72,139.86 c0,-1.0265619455514, -0.8334380544486002,-1.86, -1.86,-1.86 c-1.0265619455514,0, -1.86,0.8334380544486002, -1.86,1.86 c0,1.0265619455514, 0.8334380544486002,1.86, 1.86,1.86 c1.0265619455514,0, 1.86,-0.8334380544486002, 1.86,-1.86"/>
	<path id="FR.IS.3" fill="none" stroke="#000000" stroke-width="0.5" d="M488.72,121.86 c0,-1.0265619455514, -0.8334380544486002,-1.86, -1.86,-1.86 c-1.0265619455514,0, -1.86,0.8334380544486002, -1.86,1.86 c0,1.0265619455514, 0.8334380544486002,1.86, 1.86,1.86 c1.0265619455514,0, 1.86,-0.8334380544486002, 1.86,-1.86"/>
	<path id="FR.IS.4" fill="none" stroke="#000000" stroke-width="0.5" d="M488.72,130.86 c0,-1.0265619455514, -0.8334380544486002,-1.86, -1.86,-1.86 c-1.0265619455514,0, -1.86,0.8334380544486002, -1.86,1.86 c0,1.0265619455514, 0.8334380544486002,1.86, 1.86,1.86 c1.0265619455514,0, 1.86,-0.8334380544486002, 1.86,-1.86"/>
	<path id="FR.IS.5" fill="none" stroke="#000000" stroke-width="0.5" d="M488.72,139.86 c0,-1.0265619455514, -0.8334380544486002,-1.86, -1.86,-1.86 c-1.0265619455514,0, -1.86,0.8334380544486002, -1.86,1.86 c0,1.0265619455514, 0.8334380544486002,1.86, 1.86,1.86 c1.0265619455514,0, 1.86,-0.8334380544486002, 1.86,-1.86"/>
	<path id="FR.IS.6" fill="none" stroke="#000000" stroke-width="0.5" d="M495.72,121.86 c0,-1.0265619455514, -0.8334380544486002,-1.86, -1.86,-1.86 c-1.0265619455514,0, -1.86,0.8334380544486002, -1.86,1.86 c0,1.0265619455514, 0.8334380544486002,1.86, 1.86,1.86 c1.0265619455514,0, 1.86,-0.8334380544486002, 1.86,-1.86"/>
	<path id="FR.IS.7" fill="none" stroke="#000000" stroke-width="0.5" d="M495.72,130.86 c0,-1.0265619455514, -0.8334380544486002,-1.86, -1.86,-1.86 c-1.0265619455514,0, -1.86,0.8334380544486002, -1.86,1.86 c0,1.0265619455514, 0.8334380544486002,1.86, 1.86,1.86 c1.0265619455514,0, 1.86,-0.8334380544486002, 1.86,-1.86"/>
	<path id="FR.IS.8" fill="none" stroke="#000000" stroke-width="0.5" d="M495.72,139.86 c0,-1.0265619455514, -0.8334380544486002,-1.86, -1.86,-1.86 c-1.0265619455514,0, -1.86,0.8334380544486002, -1.86,1.86 c0,1.0265619455514, 0.8334380544486002,1.86, 1.86,1.86 c1.0265619455514,0, 1.86,-0.8334380544486002, 1.86,-1.86"/>
	<path id="RS.IS.0" fill="none" stroke="#000000" stroke-width="0.5" d="M494.72,165.86 c0,-1.0265619455514, -0.8334380544486002,-1.86, -1.86,-1.86 c-1.0265619455514,0, -1.86,0.8334380544486002, -1.86,1.86 c0,1.0265619455514, 0.8334380544486002,1.86, 1.86,1.86 c1.0265619455514,0, 1.86,-0.8334380544486002, 1.86,-1.86"/>
	<path id="RS.IS.1" fill="none" stroke="#000000" stroke-width="0.5" d="M494.72,172.86 c0,-1.0265619455514, -0.8334380544486002,-1.86, -1.86,-1.86 c-1.0265619455514,0, -1.86,0.8334380544486002, -1.86,1.86 c0,1.0265619455514, 0.8334380544486002,1.86, 1.86,1.86 c1.0265619455514,0, 1.86,-0.8334380544486002, 1.86,-1.86"/>
	<path id="RS.IS.2" fill="none" stroke="#000000" stroke-width="0.5" d="M494.72,179.86 c0,-1.0265619455514, -0.8334380544486002,-1.86, -1.86,-1.86 c-1.0265619455514,0, -1.86,0.8334380544486002, -1.86,1.86 c0,1.0265619455514, 0.8334380544486002,1.86, 1.86,1.86 c1.0265619455514,0, 1.86,-0.8334380544486002, 1.86,-1.86"/>
	<path id="RS.IS.3" fill="none" stroke="#000000" stroke-width="0.5" d="M494.72,186.86 c0,-1.0265619455514, -0.8334380544486002,-1.86, -1.86,-1.86 c-1.0265619455514,0, -1.86,0.8334380544486002, -1.86,1.86 c0,1.0265619455514, 0.8334380544486002,1.86, 1.86,1.86 c1.0265619455514,0, 1.86,-0.8334380544486002, 1.86,-1.86"/>
	<path id="RS.IS.4" fill="none" stroke="#000000" stroke-width="0.5" d="M494.72,193.86 c0,-1.0265619455514, -0.8334380544486002,-1.86, -1.86,-1.86 c-1.0265619455514,0, -1.86,0.8334380544486002, -1.86,1.86 c0,1.0265619455514, 0.8334380544486002,1.86, 1.86,1.86 c1.0265619455514,0, 1.86,-0.8334380544486002, 1.86,-1.86"/>
	<path id="RS.IS.5" fill="none" stroke="#000000" stroke-width="0.5" d="M494.72,200.86 c0,-1.0265619455514, -0.8334380544486002,-1.86, -1.86,-1.86 c-1.0265619455514,0, -1.86,0.8334380544486002, -1.86,1.86 c0,1.0265619455514, 0.8334380544486002,1.86, 1.86,1.86 c1.0265619455514,0, 1.86,-0.8334380544486002, 1.86,-1.86"/>
	<path id="FR.0.0" fill="none" stroke="#000000" stroke-width="0.5" d="M477.32000000000005,79.41 c0,-1.3301152090209, -1.0798847909791,-2.41, -2.41,-2.41 c-1.3301152090209,0, -2.41,1.0798847909791, -2.41,2.41 c0,1.3301152090209, 1.0798847909791,2.41, 2.41,2.41 c1.3301152090209,0, 2.41,-1.0798847909791, 2.41,-2.41"/>
	<path id="FR.0.1" fill="none" stroke="#000000" stroke-width="0.5" d="M483.32000000000005,79.41 c0,-1.3301152090209, -1.0798847909791,-2.41, -2.41,-2.41 c-1.3301152090209,0, -2.41,1.0798847909791, -2.41,2.41 c0,1.3301152090209, 1.0798847909791,2.41, 2.41,2.41 c1.3301152090209,0, 2.41,-1.0798847909791, 2.41,-2.41"/>
	<path id="FR.0.2" fill="none" stroke="#000000" stroke-width="0.5" d="M489.32000000000005,79.41 c0,-1.3301152090209, -1.0798847909791,-2.41, -2.41,-2.41 c-1.3301152090209,0, -2.41,1.0798847909791, -2.41,2.41 c0,1.3301152090209, 1.0798847909791,2.41, 2.41,2.41 c1.3301152090209,0, 2.41,-1.0798847909791, 2.41,-2.41"/>
	<path id="FR.0.3" fill="none" stroke="#000000" stroke-width="0.5" d="M495.32000000000005,79.41 c0,-1.3301152090209, -1.0798847909791,-2.41, -2.41,-2.41 c-1.3301152090209,0, -2.41,1.0798847909791, -2.41,2.41 c0,1.3301152090209, 1.0798847909791,2.41, 2.41,2.41 c1.3301152090209,0, 2.41,-1.0798847909791, 2.41,-2.41"/>
	<path id="FR.0.4" fill="none" stroke="#000000" stroke-width="0.5" d="M501.32000000000005,79.41 c0,-1.3301152090209, -1.0798847909791,-2.41, -2.41,-2.41 c-1.3301152090209,0, -2.41,1.0798847909791, -2.41,2.41 c0,1.3301152090209, 1.0798847909791,2.41, 2.41,2.41 c1.3301152090209,0, 2.41,-1.0798847909791, 2.41,-2.41"/>
	<path id="FR.0.5" fill="none" stroke="#000000" stroke-width="0.5" d="M471.32000000000005,85.41 c0,-1.3301152090209, -1.0798847909791,-2.41, -2.41,-2.41 c-1.3301152090209,0, -2.41,1.0798847909791, -2.41,2.41 c0,1.3301152090209, 1.0798847909791,2.41, 2.41,2.41 c1.3301152090209,0, 2.41,-1.0798847909791, 2.41,-2.41"/>
	<path id="FR.0.6" fill="none" stroke="#000000" stroke-width="0.5" d="M477.32000000000005,85.41 c0,-1.3301152090209, -1.0798847909791,-2.41, -2.41,-2.41 c-1.3301152090209,0, -2.41,1.0798847909791, -2.41,2.41 c0,1.3301152090209, 1.0798847909791,2.41, 2.41,2.41 c1.3301152090209,0, 2.41,-1.0798847909791, 2.41,-2.41"/>
	<path id="FR.0.7" fill="none" stroke="#000000" stroke-width="0.5" d="M483.32000000000005,85.41 c0,-1.3301152090209, -1.0798847909791,-2.41, -2.41,-2.41 c-1.3301152090209,0, -2.41,1.0798847909791, -2.41,2.41 c0,1.3301152090209, 1.0798847909791,2.41, 2.41,2.41 c1.3301152090209,0, 2.41,-1.0798847909791, 2.41,-2.41"/>
	<path id="FR.0.8" fill="none" stroke="#000000" stroke-width="0.5" d="M489.32000000000005,85.41 c0,-1.3301152090209, -1.0798847909791,-2.41, -2.41,-2.41 c-1.3301152090209,0, -2.41,1.0798847909791, -2.41,2.41 c0,1.3301152090209, 1.0798847909791,2.41, 2.41,2.41 c1.3301152090209,0, 2.41,-1.0798847909791, 2.41,-2.41"/>
	<path id="FR.0.9" fill="none" stroke="#000000" stroke-width="0.5" d="M495.32000000000005,85.41 c0,-1.3301152090209, -1.0798847909791,-2.41, -2.41,-2.41 c-1.3301152090209,0, -2.41,1.0798847909791, -2.41,2.41 c0,1.3301152090209, 1.0798847909791,2.41, 2.41,2.41 c1.3301152090209,0, 2.41,-1.0798847909791, 2.41,-2.41"/>
	<path id="FR.0.10" fill="none" stroke="#000000" stroke-width="0.5" d="M501.32000000000005,85.41 c0,-1.3301152090209, -1.0798847909791,-2.41, -2.41,-2.41 c-1.3301152090209,0, -2.41,1.0798847909791, -2.41,2.41 c0,1.3301152090209, 1.0798847909791,2.41, 2.41,2.41 c1.3301152090209,0, 2.41,-1.0798847909791, 2.41,-2.41"/>
	<path id="FR.0.11" fill="none" stroke="#000000" stroke-width="0.5" d="M507.32000000000005,85.41 c0,-1.3301152090209, -1.0798847909791,-2.41, -2.41,-2.41 c-1.3301152090209,0, -2.41,1.0798847909791, -2.41,2.41 c0,1.3301152090209, 1.0798847909791,2.41, 2.41,2.41 c1.3301152090209,0, 2.41,-1.0798847909791, 2.41,-2.41"/>
	<path id="FR.0.12" fill="none" stroke="#000000" stroke-width="0.5" d="M471.32000000000005,91.41 c0,-1.3301152090209, -1.0798847909791,-2.41, -2.41,-2.41 c-1.3301152090209,0, -2.41,1.0798847909791, -2.41,2.41 c0,1.3301152090209, 1.0798847909791,2.41, 2.41,2.41 c1.3301152090209,0, 2.41,-1.0798847909791, 2.41,-2.41"/>
	<path id="FR.0.13" fill="none" stroke="#000000" stroke-width="0.5" d="M477.32000000000005,91.41 c0,-1.3301152090209, -1.0798847909791,-2.41, -2.41,-2.41 c-1.3301152090209,0, -2.41,1.0798847909791, -2.41,2.41 c0,1.3301152090209, 1.0798847909791,2.41, 2.41,2.41 c1.3301152090209,0, 2.41,-1.0798847909791, 2.41,-2.41"/>
	<path id="FR.0.14" fill="none" stroke="#000000" stroke-width="0.5" d="M483.32000000000005,91.41 c0,-1.3301152090209, -1.0798847909791,-2.41, -2.41,-2.41 c-1.3301152090209,0, -2.41,1.0798847909791, -2.41,2.41 c0,1.3301152090209, 1.0798847909791,2.41, 2.41,2.41 c1.3301152090209,0, 2.41,-1.0798847909791, 2.41,-2.41"/>
	<path id="FR.0.15" fill="none" stroke="#000000" stroke-width="0.5" d="M489.32000000000005,91.41 c0,-1.3301152090209, -1.0798847909791,-2.41, -2.41,-2.41 c-1.3301152090209,0, -2.41,1.0798847909791, -2.41,2.41 c0,1.3301152090209, 1.0798847909791,2.41, 2.41,2.41 c1.3301152090209,0, 2.41,-1.0798847909791, 2.41,-2.41"/>
	<path id="FR.0.16" fill="none" stroke="#000000" stroke-width="0.5" d="M495.32000000000005,91.41 c0,-1.3301152090209, -1.0798847909791,-2.41, -2.41,-2.41 c-1.3301152090209,0, -2.41,1.0798847909791, -2.41,2.41 c0,1.3301152090209, 1.0798847909791,2.41, 2.41,2.41 c1.3301152090209,0, 2.41,-1.0798847909791, 2.41,-2.41"/>
	<path id="FR.0.17" fill="none" stroke="#000000" stroke-width="0.5" d="M501.32000000000005,91.41 c0,-1.3301152090209, -1.0798847909791,-2.41, -2.41,-2.41 c-1.3301152090209,0, -2.41,1.0798847909791, -2.41,2.41 c0,1.3301152090209, 1.0798847909791,2.41, 2.41,2.41 c1.3301152090209,0, 2.41,-1.0798847909791, 2.41,-2.41"/>
	<path id="FR.0.18" fill="none" stroke="#000000" stroke-width="0.5" d="M507.32000000000005,91.41 c0,-1.3301152090209, -1.0798847909791,-2.41, -2.41,-2.41 c-1.3301152090209,0, -2.41,1.0798847909791, -2.41,2.41 c0,1.3301152090209, 1.0798847909791,2.41, 2.41,2.41 c1.3301152090209,0, 2.41,-1.0798847909791, 2.41,-2.41"/>
	<path id="FR.0.19" fill="none" stroke="#000000" stroke-width="0.5" d="M471.32000000000005,97.41 c0,-1.3301152090209, -1.0798847909791,-2.41, -2.41,-2.41 c-1.3301152090209,0, -2.41,1.0798847909791, -2.41,2.41 c0,1.3301152090209, 1.0798847909791,2.41, 2.41,2.41 c1.3301152090209,0, 2.41,-1.0798847909791, 2.41,-2.41"/>
	<path id="FR.0.20" fill="none" stroke="#000000" stroke-width="0.5" d="M477.32000000000005,97.41 c0,-1.3301152090209, -1.0798847909791,-2.41, -2.41,-2.41 c-1.3301152090209,0, -2.41,1.0798847909791, -2.41,2.41 c0,1.3301152090209, 1.0798847909791,2.41, 2.41,2.41 c1.3301152090209,0, 2.41,-1.0798847909791, 2.41,-2.41"/>
	<path id="FR.0.21" fill="none" stroke="#000000" stroke-width="0.5" d="M483.32000000000005,97.41 c0,-1.3301152090209, -1.0798847909791,-2.41, -2.41,-2.41 c-1.3301152090209,0, -2.41,1.0798847909791, -2.41,2.41 c0,1.3301152090209, 1.0798847909791,2.41, 2.41,2.41 c1.3301152090209,0, 2.41,-1.0798847909791, 2.41,-2.41"/>
	<path id="FR.0.22" fill="none" stroke="#000000" stroke-width="0.5" d="M489.32000000000005,97.41 c0,-1.3301152090209, -1.0798847909791,-2.41, -2.41,-2.41 c-1.3301152090209,0, -2.41,1.0798847909791, -2.41,2.41 c0,1.3301152090209, 1.0798847909791,2.41, 2.41,2.41 c1.3301152090209,0, 2.41,-1.0798847909791, 2.41,-2.41"/>
	<path id="FR.0.23" fill="none" stroke="#000000" stroke-width="0.5" d="M495.32000000000005,97.41 c0,-1.3301152090209, -1.0798847909791,-2.41, -2.41,-2.41 c-1.3301152090209,0, -2.41,1.0798847909791, -2.41,2.41 c0,1.3301152090209, 1.0798847909791,2.41, 2.41,2.41 c1.3301152090209,0, 2.41,-1.0798847909791, 2.41,-2.41"/>
	<path id="FR.0.24" fill="none" stroke="#000000" stroke-width="0.5" d="M501.32000000000005,97.41 c0,-1.3301152090209, -1.0798847909791,-2.41, -2.41,-2.41 c-1.3301152090209,0, -2.41,1.0798847909791, -2.41,2.41 c0,1.3301152090209, 1.0798847909791,2.41, 2.41,2.41 c1.3301152090209,0, 2.41,-1.0798847909791, 2.41,-2.41"/>
	<path id="FR.0.25" fill="none" stroke="#000000" stroke-width="0.5" d="M507.32000000000005,97.41 c0,-1.3301152090209, -1.0798847909791,-2.41, -2.41,-2.41 c-1.3301152090209,0, -2.41,1.0798847909791, -2.41,2.41 c0,1.3301152090209, 1.0798847909791,2.41, 2.41,2.41 c1.3301152090209,0, 2.41,-1.0798847909791, 2.41,-2.41"/>
	<path id="FR.0.26" fill="none" stroke="#000000" stroke-width="0.5" d="M477.32000000000005,103.41 c0,-1.3301152090209, -1.0798847909791,-2.41, -2.41,-2.41 c-1.3301152090209,0, -2.41,1.0798847909791, -2.41,2.41 c0,1.3301152090209, 1.0798847909791,2.41, 2.41,2.41 c1.3301152090209,0, 2.41,-1.0798847909791, 2.41,-2.41"/>
	<path id="FR.0.27" fill="none" stroke="#000000" stroke-width="0.5" d="M483.32000000000005,103.41 c0,-1.3301152090209, -1.0798847909791,-2.41, -2.41,-2.41 c-1.3301152090209,0, -2.41,1.0798847909791, -2.41,2.41 c0,1.3301152090209, 1.0798847909791,2.41, 2.41,2.41 c1.3301152090209,0, 2.41,-1.0798847909791, 2.41,-2.41"/>
	<path id="FR.0.28" fill="none" stroke="#000000" stroke-width="0.5" d="M489.32000000000005,103.41 c0,-1.3301152090209, -1.0798847909791,-2.41, -2.41,-2.41 c-1.3301152090209,0, -2.41,1.0798847909791, -2.41,2.41 c0,1.3301152090209, 1.0798847909791,2.41, 2.41,2.41 c1.3301152090209,0, 2.41,-1.0798847909791, 2.41,-2.41"/>
	<path id="FR.0.29" fill="none" stroke="#000000" stroke-width="0.5" d="M495.32000000000005,103.41 c0,-1.3301152090209, -1.0798847909791,-2.41, -2.41,-2.41 c-1.3301152090209,0, -2.41,1.0798847909791, -2.41,2.41 c0,1.3301152090209, 1.0798847909791,2.41, 2.41,2.41 c1.3301152090209,0, 2.41,-1.0798847909791, 2.41,-2.41"/>
	<path id="FR.0.30" fill="none" stroke="#000000" stroke-width="0.5" d="M501.32000000000005,103.41 c0,-1.3301152090209, -1.0798847909791,-2.41, -2.41,-2.41 c-1.3301152090209,0, -2.41,1.0798847909791, -2.41,2.41 c0,1.3301152090209, 1.0798847909791,2.41, 2.41,2.41 c1.3301152090209,0, 2.41,-1.0798847909791, 2.41,-2.41"/>
	<path id="FR.0.31" fill="none" stroke="#000000" stroke-width="0.5" d="M477.32000000000005,109.41 c0,-1.3301152090209, -1.0798847909791,-2.41, -2.41,-2.41 c-1.3301152090209,0, -2.41,1.0798847909791, -2.41,2.41 c0,1.3301152090209, 1.0798847909791,2.41, 2.41,2.41 c1.3301152090209,0, 2.41,-1.0798847909791, 2.41,-2.41"/>
	<path id="FR.0.32" fill="none" stroke="#000000" stroke-width="0.5" d="M483.32000000000005,109.41 c0,-1.3301152090209, -1.0798847909791,-2.41, -2.41,-2.41 c-1.3301152090209,0, -2.41,1.0798847909791, -2.41,2.41 c0,1.3301152090209, 1.0798847909791,2.41, 2.41,2.41 c1.3301152090209,0, 2.41,-1.0798847909791, 2.41,-2.41"/>
	<path id="FR.0.33" fill="none" stroke="#000000" stroke-width="0.5" d="M489.32000000000005,109.41 c0,-1.3301152090209, -1.0798847909791,-2.41, -2.41,-2.41 c-1.3301152090209,0, -2.41,1.0798847909791, -2.41,2.41 c0,1.3301152090209, 1.0798847909791,2.41, 2.41,2.41 c1.3301152090209,0, 2.41,-1.0798847909791, 2.41,-2.41"/>
	<path id="FR.0.34" fill="none" stroke="#000000" stroke-width="0.5" d="M495.32000000000005,109.41 c0,-1.3301152090209, -1.0798847909791,-2.41, -2.41,-2.41 c-1.3301152090209,0, -2.41,1.0798847909791, -2.41,2.41 c0,1.3301152090209, 1.0798847909791,2.41, 2.41,2.41 c1.3301152090209,0, 2.41,-1.0798847909791, 2.41,-2.41"/>
	<path id="FR.0.35" fill="none" stroke="#000000" stroke-width="0.5" d="M501.32000000000005,109.41 c0,-1.3301152090209, -1.0798847909791,-2.41, -2.41,-2.41 c-1.3301152090209,0, -2.41,1.0798847909791, -2.41,2.41 c0,1.3301152090209, 1.0798847909791,2.41, 2.41,2.41 c1.3301152090209,0, 2.41,-1.0798847909791, 2.41,-2.41"/>
</svg>
